<?xml version="1.0" standalone="no"?>
<!DOCTYPE svg PUBLIC "-//W3C//DTD SVG 20010904//EN"
 "http://www.w3.org/TR/2001/REC-SVG-20010904/DTD/svg10.dtd">
<svg version="1.0" xmlns="http://www.w3.org/2000/svg"
 width="130.000000pt" height="130.000000pt" viewBox="0 0 130.000000 130.000000"
 preserveAspectRatio="xMidYMid meet">

<g transform="translate(0.000000,130.000000) scale(0.100000,-0.100000)"
fill="#000000" stroke="none">
<path d="M525 1086 c-129 -41 -227 -126 -283 -245 -31 -64 -37 -88 -40 -163
-5 -97 7 -157 45 -233 78 -157 226 -245 408 -245 251 0 445 195 445 445 0 207
-115 369 -308 434 -71 24 -202 28 -267 7z m199 -57 c75 -66 119 -205 119 -379
0 -175 -44 -313 -120 -381 -35 -30 -39 -31 -108 -27 -144 9 -274 100 -338 236
-30 62 -32 75 -32 172 0 97 2 110 32 172 67 143 207 236 355 237 50 1 62 -3
92 -30z m155 -108 c97 -153 98 -389 2 -540 -17 -26 -41 -57 -53 -67 -21 -19
-21 -19 -13 1 40 99 57 159 67 240 18 147 -1 266 -67 430 -8 20 -8 20 13 1 12
-10 35 -40 51 -65z m85 -4 c110 -135 128 -334 43 -477 -25 -41 -96 -120 -108
-120 -5 0 5 21 22 48 50 79 71 163 71 282 0 120 -21 203 -72 283 -24 38 -26
46 -11 37 11 -5 36 -29 55 -53z"/>
</g>
</svg>
